<svg width="24" height="24" viewBox="0 0 24 24" fill="none" xmlns="http://www.w3.org/2000/svg">
<g clip-path="url(#clip0_17_231)">
<path d="M12 24C18.6274 24 24 18.6274 24 12C24 5.37259 18.6274 0 12 0C5.37259 0 0 5.37259 0 12C0 18.6274 5.37259 24 12 24Z" fill="#171717"/>
<path d="M16.4771 3.47515C15.9833 3.58937 15.5296 3.83489 15.1638 4.18577C12.9617 6.10918 14.7596 9.02443 13.4564 13.9384C12.7031 16.801 11.4049 18.3753 12.3088 19.8518C12.6729 20.3964 13.2004 20.8114 13.8154 21.037C15.8744 21.8782 18.0841 20.5197 18.6943 20.1531C22.2096 18.0037 24.2486 12.3465 22.3402 8.10038C21.2932 5.73504 18.6817 3.01814 16.4771 3.47515Z" fill="white"/>
</g>
<defs>
<clipPath id="clip0_17_231">
<rect width="24" height="24" fill="white"/>
</clipPath>
</defs>
</svg>
