<svg width="128" height="128" viewBox="0 0 128 128" fill="none" xmlns="http://www.w3.org/2000/svg">
<path d="M24 64C23.9981 64.7651 24.2157 65.5146 24.6269 66.1598C25.0381 66.805 25.6257 67.3187 26.32 67.64L60.72 83.28C61.7568 83.7495 62.8819 83.9923 64.02 83.9923C65.1582 83.9923 66.2832 83.7495 67.32 83.28L101.64 67.68C102.348 67.3617 102.948 66.8444 103.367 66.1909C103.786 65.5375 104.006 64.7762 104 64M24 84C23.9981 84.7651 24.2157 85.5146 24.6269 86.1598C25.0381 86.805 25.6257 87.3187 26.32 87.64L60.72 103.28C61.7568 103.749 62.8819 103.992 64.02 103.992C65.1582 103.992 66.2832 103.749 67.32 103.28L101.64 87.68C102.348 87.3617 102.948 86.8444 103.367 86.1909C103.786 85.5375 104.006 84.7762 104 84M67.32 24.72C66.2778 24.2446 65.1456 23.9986 64 23.9986C62.8545 23.9986 61.7223 24.2446 60.68 24.72L26.4 40.32C25.6902 40.633 25.0867 41.1456 24.6631 41.7954C24.2394 42.4453 24.0138 43.2043 24.0138 43.98C24.0138 44.7557 24.2394 45.5147 24.6631 46.1646C25.0867 46.8144 25.6902 47.327 26.4 47.64L60.72 63.28C61.7623 63.7554 62.8945 64.0014 64.04 64.0014C65.1856 64.0014 66.3178 63.7554 67.36 63.28L101.68 47.68C102.39 47.367 102.993 46.8544 103.417 46.2046C103.841 45.5547 104.066 44.7957 104.066 44.02C104.066 43.2443 103.841 42.4853 103.417 41.8354C102.993 41.1856 102.39 40.673 101.68 40.36L67.32 24.72Z" stroke="white" stroke-width="8" stroke-linecap="round" stroke-linejoin="round"/>
</svg>
